<svg width="550" height="180" viewBox="30 215 550 180" fill="none" xmlns="http://www.w3.org/2000/svg">
<path d="M91.8125 224.125H189.375C198.583 224.833 203.354 228.729 203.688 235.812C203.688 237.979 201.208 245.396 196.25 258.062H227.562C236.771 258.771 241.542 262.667 241.875 269.75C241.875 273.083 233.75 294.125 217.5 332.875C204.75 366.625 197.5 384.125 195.75 385.375C192.833 387.5 189.479 388.562 185.688 388.562H85.9375C79.6875 388.562 75.4375 386.083 73.1875 381.125C72.8542 379.208 72.6875 377.792 72.6875 376.875C72.6875 374.25 75.3333 366.833 80.625 354.625H47.75C41.5 354.625 37.25 352.146 35 347.188C34.6667 345.229 34.5 343.812 34.5 342.938C34.5 339.896 46.3542 309.667 70.0625 252.25C75.4375 236.292 79.8542 227.458 83.3125 225.75C85.9792 224.667 88.8125 224.125 91.8125 224.125ZM193.438 224.125H291C303.083 224.125 308.042 228.021 305.875 235.812C304.833 239.438 302.188 246.854 297.938 258.062H329.188C340.812 258.062 345.771 261.958 344.062 269.75C343.021 274.542 336.312 291.521 323.938 320.688C321.312 323.854 318.646 325.438 315.938 325.438C317.729 328.188 318.625 330.667 318.625 332.875C318.625 335.042 312.083 351.833 299 383.25C296.458 386.792 292.562 388.562 287.312 388.562H187.625C179.625 388.562 175.021 384.854 173.812 377.438C174.812 373.396 177.458 365.792 181.75 354.625H149.438C141.438 354.625 136.833 350.917 135.625 343.5C135.625 340.833 150.292 303.708 179.625 232.125C181.292 227.167 185.896 224.5 193.438 224.125ZM327.5 223.625C334.792 223.625 339.729 226.104 342.312 231.062C342.854 232.479 343.396 233.188 343.938 233.188H344.438C344.438 228.688 348.333 225.5 356.125 223.625H404.938C416.062 224 420.833 227.896 419.25 235.312C419.25 237.979 416.583 245.396 411.25 257.562H443.125C454.292 257.688 459.062 261.583 457.438 269.25C457.438 272.417 451.25 288.5 438.875 317.5C422.583 359.958 413.375 382.417 411.25 384.875C408.375 387 405.021 388.062 401.188 388.062H366.75C359.875 388.062 355.271 385.042 352.938 379L351.875 378.5C350.375 384.875 345.958 388.062 338.625 388.062H290.375C281 388.062 276.396 384.333 276.562 376.875C277.562 372.875 280.208 365.271 284.5 354.062H252.188C242.646 354.062 238.042 350.354 238.375 342.938C238.375 340.312 253.229 302.833 282.938 230.5C284.312 226.208 288.208 223.917 294.625 223.625H327.5ZM410.938 223.625H519.625C531.208 223.625 536.167 227.521 534.5 235.312C533.417 239.146 530.75 246.562 526.5 257.562H557.812C568.604 257.562 573.562 261.458 572.688 269.25C572.688 271.167 557.833 308.812 528.125 382.188C525.708 386.104 521.646 388.062 515.938 388.062H405.062C398.812 388.062 394.562 385.583 392.312 380.625C391.979 378.667 391.812 377.25 391.812 376.375C391.812 373.75 394.458 366.312 399.75 354.062H366.875C360.625 354.062 356.375 351.604 354.125 346.688C353.792 344.729 353.625 343.312 353.625 342.438C354.583 337.396 361.646 318.833 374.812 286.75C389.688 249.458 397.833 229.646 399.25 227.312C402.75 224.854 406.646 223.625 410.938 223.625Z" fill="black"/>
<path d="M45.625 342.938C54.125 321.604 58.5417 310.833 58.875 310.625C78.3333 260.75 88.4167 235.812 89.125 235.812H192.562C179.104 269.438 172.375 286.583 172.375 287.25H128.375C127.542 287.417 126.667 288.833 125.75 291.5H170.25C156.833 324.917 150.125 342.062 150.125 342.938H45.625ZM174 248H97.0625L63.6875 330.75H141.625L151.688 304.25V303.688H107.688C114.771 285.688 118.833 276.146 119.875 275.062H163.938L174 248.562V248ZM147.312 342.938L170.125 285.688C183.042 252.854 189.938 236.229 190.812 235.812H294.188C282.521 264.771 276.688 279.625 276.688 280.375H260.25C259.833 280.375 257.188 286.375 252.312 298.375H268.75C257.625 328.083 251.625 342.938 250.75 342.938H147.312ZM198.188 248C181.604 290.375 170.646 317.792 165.312 330.25V330.75H243.312L250.75 310.625H199.25C203.167 301.625 205.125 296.833 205.125 296.25H240.125C242.958 288.792 244.729 284.375 245.438 283H210.938C214.229 273.125 216.167 268.188 216.75 268.188H268.25L275.625 248.562V248H198.188ZM250.062 342.438C255.688 327.729 260.979 314.646 265.938 303.188C283.396 258.354 292.604 235.729 293.562 235.312H331.188C331.688 235.438 336.458 243.208 345.5 258.625C346 258.583 347.062 256.646 348.688 252.812C353.062 241.146 355.542 235.312 356.125 235.312H408.125C397.833 261.188 392.521 274.271 392.188 274.562C374.729 319.354 365.542 341.979 364.625 342.438H325.875C317.083 326.896 312.312 319.104 311.562 319.062C306.104 334.521 302.917 342.312 302 342.438H250.062ZM300.938 247.5C300.938 248.25 289.979 275.833 268.062 330.25H294.625L309.438 291.5C310.354 291.5 318.146 304.417 332.812 330.25H357.188L389.562 248V247.5H364.625C363.333 249.042 361.729 252.229 359.812 257.062C352.396 276.854 348.333 286.75 347.625 286.75C347.625 286.292 340.021 273.208 324.812 247.5H300.938ZM364.75 342.438L378 310.062C397.458 260.229 407.542 235.312 408.25 235.312H522.812C494.521 306.062 480.375 341.771 480.375 342.438H364.75ZM504.812 247.5H416.188L382.812 330.25H471.875C493.125 276.792 504.104 249.375 504.812 248V247.5ZM431.062 274.562H467.688L456.5 303.188H419.938C427.354 284.938 431.062 275.396 431.062 274.562Z" fill="white"/>
<defs>
<linearGradient id="paint0_linear_202_62" x1="0" y1="0" x2="617.724" y2="17.711" gradientUnits="userSpaceOnUse">
<stop stop-color="#12FF80"/>
<stop offset="1" stop-color="#06FFD2"/>
</linearGradient>
</defs>
</svg>
