<svg width="30" height="25" viewBox="0 0 30 25" fill="none" xmlns="http://www.w3.org/2000/svg">
<path d="M8.07498 1.6129C8.96692 1.6129 9.68998 2.33502 9.68998 3.22581V17.7419C9.68998 18.6327 10.413 19.3548 11.305 19.3548C12.1969 19.3548 12.92 18.6327 12.92 17.7419V6.45161C12.92 5.56083 13.643 4.83871 14.535 4.83871C15.4269 4.83871 16.15 5.56083 16.15 6.45161V16.129C16.15 17.0198 16.873 17.7419 17.765 17.7419C18.6569 17.7419 19.38 17.0198 19.38 16.129V1.6129C19.38 0.722121 20.103 0 20.995 0C21.8869 0 22.61 0.722121 22.61 1.6129V14.5161C22.61 15.4069 23.333 16.129 24.225 16.129C25.1169 16.129 25.8399 15.4069 25.8399 14.5161V11.2903C25.8399 10.3995 26.563 9.67742 27.4549 9.67742C28.2787 9.67742 28.9585 10.2934 29.0575 11.0894C28.7397 18.8256 22.3593 25 14.535 25C6.50753 25 0 18.5009 0 10.4839C0 10.0787 0.016619 9.67746 0.0492132 9.28071C0.226214 8.58175 0.860123 8.06452 1.615 8.06452C2.50693 8.06452 3.22999 8.78664 3.22999 9.67742V14.5161C3.22999 15.4069 3.95305 16.129 4.84499 16.129C5.73693 16.129 6.45999 15.4069 6.45999 14.5161V3.22581C6.45999 2.33503 7.18305 1.6129 8.07498 1.6129Z" fill="url(#paint0_linear_372_3007)"/>
<defs>
<linearGradient id="paint0_linear_372_3007" x1="14.535" y1="-10" x2="14.5351" y2="18.75" gradientUnits="userSpaceOnUse">
<stop stop-color="#05DBF3"/>
<stop offset="1" stop-color="#0468BE"/>
</linearGradient>
</defs>
</svg>
