<svg width="505" height="520" viewBox="0 0 505 520" fill="none" xmlns="http://www.w3.org/2000/svg">
<g filter="url(#filter0_f_28_4)">
<path d="M189.532 320.495C194.168 326.995 197.755 333.385 202.618 338.575C215.023 351.812 227.998 364.514 241.089 377.755C241.54 380.402 241.648 382.724 241.83 386.638C241.648 382.724 241.54 380.403 241.433 378.081C262.364 389.657 283.296 401.232 304.561 413.193C302.105 416.027 299.117 416.7 295.669 416.762L294.867 416.766C298.66 416.795 301.958 416.293 304.895 413.578C304.895 413.578 305.424 413.584 305.948 413.979C306.072 413.994 306.194 414.003 306.313 414.014C307.235 413.587 308.409 413.44 309.821 413.549C309.264 413.819 308.617 413.99 307.878 414.063C308.68 414.034 309.379 413.931 310.078 413.824C319.422 416.321 328.634 419.859 338.143 421.092C355.991 423.406 373.997 424.607 391.968 425.808C398.437 426.241 404.995 425.342 412.163 425.109C411.466 426.118 410.188 427.893 408.995 428.23C410.198 427.895 411.548 426.125 412.815 425.166C421.018 424.189 429.221 423.212 438.685 422.084C437.151 424.964 436.57 426.751 435.443 428.072C406.611 461.87 372.76 488.854 330.368 503.627C310.243 510.64 289.376 513.879 268.003 515.816C254.365 517.053 247.093 512.005 240.492 502.05C236.902 496.636 232.7 491.628 229.099 485.875C229.784 484.855 230.143 484.395 230.502 483.936C229.37 483.529 228.238 483.12 227.106 482.713C227.106 482.708 227.103 482.654 227.086 482.161C226.219 477.904 226.494 474.697 227.927 472.476C226.493 474.696 226.216 477.903 227.079 482.159C218.733 468.008 210.373 453.323 202.474 438.055C210.976 433.788 218.476 428.018 227.694 427.379L228.725 427.328C219.029 427.58 211.286 433.566 202.445 437.549C200.985 435.144 200.013 432.658 199.354 429.32C199.25 428.799 199.136 428.281 199.029 427.764C194.696 412.689 189.963 397.423 186.974 381.824C183.419 363.271 184.991 344.477 187.891 325.866C188.131 324.322 188.799 322.845 189.532 320.495Z" fill="#6A32C3"/>
<path fill-rule="evenodd" clip-rule="evenodd" d="M106.365 194.118C135.025 183.353 164.421 180.547 194.584 185.7C196.192 185.975 197.795 186.338 199.361 186.798C200.446 187.117 201.462 187.675 203.514 188.558C193.194 202.269 183.171 215.585 172.686 229.09C172.224 229.278 172.105 229.16 172.147 228.597C169.789 231.041 167.197 232.831 165.111 234.99L165.565 234.535C167.564 232.591 169.949 230.973 172.104 229.161C172.108 229.165 172.225 229.278 172.283 229.336C168.826 235.736 165.309 242.077 161.11 248.477C160.143 247.748 159.857 246.961 159.571 245.822C159.571 245.471 159.571 244.77 159.777 244.325C156.626 243.624 154.203 243.344 152.09 245.759C154.199 243.355 156.594 243.694 159.571 244.769C159.571 244.769 159.571 245.471 159.571 245.822C158.174 247.727 156.779 249.281 155.372 251.319C154.146 254.666 152.88 257.658 151.697 260.626C152.892 257.67 154.233 254.747 155.896 251.806C157.498 251.819 158.567 251.83 159.636 251.841C150.927 271.972 143.776 292.584 140.443 314.367C139.88 318.042 139.386 321.728 138.604 325.892C138.387 320.674 138.427 314.97 138.549 308.147C139.394 303.397 141.178 299.322 141.121 295.689C141.177 299.314 139.393 303.325 138.549 307.566C131.811 308.546 125.476 309.417 121.891 315.744C125.475 309.427 131.803 308.65 138.466 308.687C138.425 314.971 138.386 320.673 138.347 326.375C138.376 327.036 138.405 327.697 137.936 329.109C137.907 329.351 137.886 329.59 137.863 329.824C138.16 331.876 138.103 334.183 137.902 337.024C137.765 335.954 137.672 334.721 137.659 333.371C137.639 334.856 137.694 336.227 137.749 337.599C137.755 338.718 137.761 339.838 137.056 341.533C136.968 341.77 136.887 342.007 136.804 342.24C137.335 351.627 137.427 361.089 137.25 370.987C136.072 368.078 135.163 364.726 134.253 360.786C134.253 359.151 134.256 358.105 134.257 356.002C134.253 353.88 134.252 352.814 134.251 351.748C134.676 349.79 135.102 347.831 135.629 345.856C135.015 347.914 134.489 349.863 133.803 351.846C134.253 352.813 134.255 353.88 134.255 355.479C133.991 354.759 133.727 353.631 133.766 352.386C133.728 353.645 133.99 354.89 134.255 356.534C134.255 358.104 134.254 359.151 133.742 360.222C131.624 362.268 128.562 364.453 127.37 366.413C128.564 364.479 131.626 362.404 133.744 360.81C135.163 364.726 136.071 368.078 136.979 371.429C136.998 372.086 137.015 372.744 136.692 374.049C136.039 374.972 135.815 375.307 135.33 376.05C136.228 379.91 137.472 383.419 138.718 386.927C140.13 393.007 141.541 399.088 142.697 406.262C139.614 417.638 139.268 418.922 130.767 416.685L128.816 416.155C139.232 419.057 139.396 418.486 142.713 406.834C148.875 423.907 154.766 441.502 160.597 459.862C157.581 460.674 157.001 456.335 153.963 456.321C157.005 456.341 157.612 460.732 160.835 460.323C170.168 475.148 179.205 490.279 188.241 505.409C187.963 506.006 187.685 506.602 187.408 507.198C154.486 500.343 124.798 486.212 97.8736 464.944C97.1022 462.604 96.566 460.662 95.8802 458.18C96.566 460.662 97.103 462.605 97.6395 464.546C89.2374 457.331 80.8342 450.116 72.5961 442.186C72.5378 442.022 72.4751 441.867 72.4128 441.72C71.6482 441.332 71.181 440.684 70.7126 439.634C71.0919 439.821 71.4676 440.14 71.7938 440.559C71.4493 440.037 71.0813 439.629 70.7106 439.222C71.8124 438.248 72.988 437.275 74.6975 436.626C75.1856 437.014 75.5292 437.315 75.8011 437.572L76.4731 438.252C76.0735 437.827 75.6734 437.403 75.2126 436.608C75.8197 436.641 76.4888 437.043 77.1572 437.445C76.4885 437.043 75.8182 436.64 75.1495 436.237C73.4877 434.494 71.8259 432.75 69.9022 430.732C71.8259 432.75 73.4896 434.493 74.6364 436.256C72.9217 437.299 71.7208 438.324 70.5212 439.348C64.0948 432.057 56.9201 425.284 51.4256 417.347C44.0489 406.69 37.9705 395.133 31.2264 383.445C32.8165 384.095 35.0758 384.809 36.2904 386.169L36.0155 385.884C34.7543 384.689 32.6833 383.952 31.1185 382.928C30.6577 382.766 30.3317 382.459 30.4974 381.606C31.0243 380.873 31.354 380.356 31.6377 379.9C31.3528 380.338 31.0149 380.786 30.4648 381.265C30.0772 381.327 29.9134 380.848 29.9008 380.595C30.5703 380.039 31.2513 379.733 31.9329 379.43C31.2515 379.733 30.5701 380.037 29.8886 380.34C27.7511 375.958 25.6332 371.566 23.4521 367.206C23.1185 366.539 22.4868 366.021 21.6949 364.787C21.6267 364.675 21.5585 364.574 21.4973 364.478C21.257 364.48 20.9131 364.151 20.52 363.461C20.7013 363.451 20.9023 363.62 21.1512 363.956C20.8683 363.552 20.6701 363.324 20.4691 363.098C20.3316 362.614 20.195 362.129 20.0944 360.774C20.0518 360.581 20.0056 360.399 19.962 360.228C19.5861 359.812 19.2075 359.028 18.8543 357.881C19.0821 358.06 19.3019 358.365 19.5182 358.798C19.3106 358.252 19.0994 357.824 18.8869 357.396C17.4531 353.692 16.0182 349.988 14.5803 345.176C14.6046 342.882 14.634 341.697 15.1505 340.639L14.3828 336.762C12.6383 327.725 11.2104 318.774 9.83392 309.816C9.78617 309.505 9.74313 309.193 9.70157 308.88C9.41798 306.687 9.32539 304.415 9.58754 301.691C11.9834 300.661 14.8756 300.618 16.0749 299.71C14.8754 300.609 11.9833 300.583 9.58958 301.077C9.54557 297.339 9.69555 293.534 10.4733 289.87C9.69345 293.536 9.5105 297.377 9.02555 301.684C9.28823 304.803 9.45148 307.327 9.83392 309.816C11.407 320.053 13.0467 330.281 14.6618 340.512C14.6336 341.697 14.6049 342.882 14.5478 344.668C10.8928 328.41 6.59344 311.651 4.07755 294.627C3.38062 289.911 7.53867 284.163 10.231 279.312C23.6899 255.062 42.5491 235.413 63.9015 217.409C64.2837 217.197 64.844 217.583 65.0031 218.306C61.4203 222.608 59.8074 228.282 54.9096 230.98C59.8106 228.285 61.4511 222.639 65.2474 218.544C70.4514 217.547 75.5707 217.035 81.1217 216.48C75.5708 217.035 70.4515 217.546 65.0886 217.821C64.8492 217.589 64.3063 217.213 64.2843 217.198C76.5595 206.306 91.224 199.805 106.365 194.118ZM21.6317 350.589L22.4279 353.894L22.2345 353.062C22.0607 352.256 21.9379 351.416 22.0125 350.446C21.889 350.492 21.7614 350.539 21.6317 350.589Z" fill="#6A32C3"/>
<path d="M227.155 483.125C228.237 483.121 229.37 483.529 230.502 483.936C230.143 484.395 229.783 484.854 229.022 485.397C228.149 484.832 227.676 484.184 227.155 483.125Z" fill="#6A32C3"/>
<path d="M70.7004 439.23C70.6805 439.257 70.628 439.325 70.5803 439.336C70.6199 439.301 70.6606 439.265 70.7004 439.23Z" fill="#6A32C3"/>
<path d="M136.8 375.673C137.435 379.036 138.068 382.401 138.71 386.347C137.472 383.42 136.226 379.91 135.609 376.044C136.237 375.686 136.8 375.673 136.8 375.673Z" fill="#6A32C3"/>
<path fill-rule="evenodd" clip-rule="evenodd" d="M369.107 32.8233C375.818 36.5412 382.834 39.8021 389.193 44.0471C443.347 80.1984 478.037 130.153 494.149 193.151C494.495 194.504 494.57 195.926 494.768 197.932C493.431 197.91 492.095 197.271 490.761 196.633C492.095 197.271 493.432 197.911 494.766 198.55C496.823 210.662 499.965 222.712 500.665 234.902C501.556 250.426 500.471 266.065 499.708 282.289C499.652 282.508 499.609 282.715 499.574 282.91C499.911 283.467 499.915 284.098 499.765 285.157C499.613 284.937 499.503 284.602 499.458 284.202C499.463 284.723 499.534 285.166 499.604 285.61C499.287 288.943 498.97 292.278 498.215 295.77C497.372 292.61 496.917 288.96 493.495 288.118C496.915 288.968 497.356 292.678 498.085 296.322C495.574 319.612 489.287 341.591 480.203 362.717C478.927 365.686 475.165 368.623 471.963 369.569C418.797 385.263 366.059 386.412 314.421 363.406C306.121 359.708 298.387 354.728 290.442 350.249C288.651 349.239 287.076 347.845 285.342 346.584C297.664 337.023 309.738 327.656 322.246 318.12C323.609 318.996 324.951 319.863 325.675 321.001C324.957 319.861 323.664 318.974 322.682 317.951C330.309 309.538 338.52 301.573 345.414 292.598C354.03 281.382 361.562 269.333 370.16 257.716C371.401 257.496 372.589 257.402 373.17 257.026L373.172 257.024C372.601 257.391 371.47 257.436 370.527 257.401C376.158 241.021 382.853 225.276 387.706 208.983C397.325 176.684 396.052 143.749 391.094 110.823C387.097 84.2753 378.213 59.1665 369.107 32.8233ZM488.822 188.251L489.627 191.894L489.226 190.019C489.092 189.359 488.96 188.646 488.828 187.827C488.837 187.63 488.833 187.464 488.833 187.326C488.832 187.545 488.835 187.843 488.822 188.251Z" fill="#6A32C3"/>
<path d="M136.609 374.536C136.866 374.375 136.931 375.029 136.865 375.351C136.799 375.673 136.237 375.687 135.957 375.693C135.814 375.307 136.039 374.972 136.609 374.536Z" fill="#6A32C3"/>
<path d="M159.571 246.173C159.857 246.96 160.143 247.749 160.766 248.799C160.849 249.842 160.595 250.621 159.988 251.621C158.567 251.829 157.498 251.819 155.906 251.321C156.778 249.281 158.174 247.726 159.571 246.173Z" fill="#6A32C3"/>
<path d="M223.435 5.96696C248.645 2.36027 273.923 3.87506 298.86 9.19005C301.473 9.74695 304.899 11.7061 305.875 13.9269C316.222 37.4696 326.147 61.1987 335.756 85.1772C334.265 83.3055 333.018 81.2631 331.83 79.1792L330.658 77.0868C332.213 79.8839 333.769 82.6813 335.811 85.7721C352.155 134.313 353.586 182.156 333.005 230.675C325.472 221.416 319.078 213.12 312.226 205.222C295.754 186.237 276.283 171.046 253.646 160.025C249.351 157.934 244.964 156.03 240.213 153.718C238.719 152.558 237.452 151.389 236.177 150.401L236.155 150.385C237.394 151.345 238.566 152.437 239.806 153.396C220.242 148.893 200.889 142.729 181.073 140.198C120.963 132.519 67.5971 149.095 21.2998 188.308C18.8973 190.343 16.1987 192.028 12.0575 195.017C12.4094 191.637 12.3616 189.968 12.7763 188.422C25.0449 142.699 48.423 103.504 83.05 71.3476C122.719 34.5091 170.161 13.5887 223.435 5.96696Z" fill="#6A32C3"/>
</g>
<defs>
<filter id="filter0_f_28_4" x="0" y="0" width="505" height="520" filterUnits="userSpaceOnUse" color-interpolation-filters="sRGB">
<feFlood flood-opacity="0" result="BackgroundImageFix"/>
<feBlend mode="normal" in="SourceGraphic" in2="BackgroundImageFix" result="shape"/>
<feGaussianBlur stdDeviation="2" result="effect1_foregroundBlur_28_4"/>
</filter>
</defs>
</svg>
